<?xml version="1.0" encoding="utf-8"?>
<!-- Svg Vector Icons : http://www.onlinewebfonts.com/icon -->
<!DOCTYPE svg PUBLIC "-//W3C//DTD SVG 1.1//EN" "http://www.w3.org/Graphics/SVG/1.1/DTD/svg11.dtd">
<svg version="1.1" xmlns="http://www.w3.org/2000/svg" xmlns:xlink="http://www.w3.org/1999/xlink" x="0px" y="0px" viewBox="0 0 1000 1000" enable-background="new 0 0 1000 1000" xml:space="preserve">
<metadata> Svg Vector Icons : http://www.onlinewebfonts.com/icon </metadata>
<g><path d="M621.4,40.3h-5.7l-5.7,2h-5.7c-7,2.1-13.3,3.3-18.8,3.7c-9.7,4.7-18.6,7.9-26.7,9.4c-8.2,5.7-16.4,9.6-24.7,11.7c-4,2.7-7.8,4.6-11.4,5.7c-3,2.7-6.2,4.6-9.4,5.7l-9.7,7.4l-9.4,5.7l-3.7,2c-8,6.1-15,10.5-21,13.4l-7.7,7.4l-7.4,4l-7.7,7.7l-7.7,5.7l-5.7,1.7c-13.5,12.3-24.8,21.2-34.1,26.7l-5.7,5.7l-7.7,3.7l-7.4,5.7l-5.7,4l-4,3.7l-7.7,3.7c-1.1,2.3-2.4,3.6-3.7,4l-5.7,3.7l-32.1,24.7l-9.7-4c-4.6-8.3-9-15.3-13.4-20.8l-11.4-20.8l-3.7-4l-13.4-20.8l-3.7-4l-3.7-3.7l-2-5.7l-4-2l-3.7-3.7l-2-5.7l-5.7-3.7l-15.1-17.3c-6.4-3.2-11.5-7-15.1-11.4c-43.8-13.3-83-9.5-117.7,11.4l-2,4l-4,3.7l-17.1,26.7l-3.7,15.1l-3.7,5.7l-7.7,32.4l-2,7.4l-1.7,15.4l-2,5.7v7.7l-5.7,47.5v20.8l-2,7.7v20.8l-1.7,7.7v24.7c-2.3,14.6-2.9,26.6-2,36.1l-7.7,24.5c-0.2,3.4-0.9,6-2,7.7l-1.7,7.7l-2,5.7l-5.7,13.4l-2,3.7L10,484.8c2.5,103.7,50,179.6,142.5,227.8c14.4,21.4,31.5,37.9,51.2,49.5c-4,5.5-7.8,9.9-11.4,13.4l-3.7,3.7c-6.4,8.5-12.8,15.5-19.1,21l-3.7,7.4l-4,5.7l-3.7,2c-4.4,10-8.8,18.3-13.4,24.7l-2,13.4v20.8c2.5,9.7,6.9,17.9,13.4,24.7c8.3,5.5,14.7,11.2,19.1,17.1c19.5,3.2,30.9,15.3,34.1,36.1c6.3,3.8,11.4,7.6,15.4,11.4h77.6l11.7-2c10.4-5.1,18.6-10.8,24.5-17.1c24.3-8.2,43.9-19.5,58.9-34.1l5.7-2c12.1-8.7,24.2-13.7,36.1-15.1c4-2.8,7.8-4.7,11.4-5.7c13.3-16.1,28.5-28.1,45.8-36.1c1.1-2.3,2.4-3.5,3.7-3.7c4.4-6.1,8.1-10.5,11.4-13.4l7.7-4l7.4-7.4l6-4l9.4-9.4c7.6-10.8,15.8-19.1,24.7-24.7l3.7-5.7c1.3-2.3,2.6-3.5,3.7-3.7l2-5.7l3.7-4c1.3-2.1,2.7-3.3,4-3.7l2-5.7l3.7-3.7l17.1-24.7l3.7-2c4.6-4.9,9-8.7,13.4-11.4c-0.2-26.7-7.1-49.5-20.8-68.3c-1.9-25.4-8.9-46.9-21-64.6l-20.8-4c-15.7,2.8-30.3,2.2-43.8-2l7.7-7.4l3.7-9.7l7.7-9.4l2-5.7l24.5-36.1l4-7.7l3.7-5.7l17.1-26.4l4-4c6.6-13.7,13.6-24.4,20.8-32.1c4.2-9.1,8.6-16.1,13.4-21c7.2-13.6,14.8-24.4,22.8-32.1c14,1.7,26.1,5.5,36.1,11.4l7.7,3.7l3.7,4l11.4,7.4l5.7,2c2.1,1.3,3.3,2.6,3.7,3.7l13.4,7.7l26.7,17.1l18.8,15.4l11.4,7.4l4,5.7l5.7,2l9.4,9.7l11.4,7.4l21,17.1l5.7,4l9.4,7.4l4,5.7c6.4,4,11.5,8.4,15.1,13.4l13.4,7.7l3.7,3.7l2,4l3.7,1.7c12.3,9.3,21.8,17.5,28.4,24.7l9.7,9.7c11.2,6.8,20,14.4,26.4,22.8c9.5,7.2,19.6,10.3,30.4,9.4v-30.4l-2-17.1l-1.7-7.7l-2-9.4v-7.7c-3.4-10-5.3-18.9-5.7-26.4l-2-5.7v-5.7c-1.5-1.3-2.1-2.7-1.7-4c-5.1-16.9-8.3-30.8-9.7-41.8c-1.5-1.1-2.1-2.4-1.7-3.7l-9.7-32.4l-2-9.4l-1.7-9.4c-1.5-1.9-2.2-3.8-2-5.7c-1.3-1.9-2-3.8-2-5.7l-1.7-4c-4-11.6-6.5-21-7.7-28.4c-1.5-1.3-2.2-2.6-2-3.7l-7.4-24.7l-2-7.7c-4.7-9.5-7.9-18.3-9.4-26.4l-2-7.7c-1.5-1.9-2.2-3.8-2-5.7c-3.4-6.3-6-12-7.7-17.1l-5.7-19.1l-3.7-5.7v-5.7c-5.9-9.5-9.7-18.4-11.4-26.7c-5.5-7.6-9.3-14.5-11.4-20.8l-3.7-5.7c-2.8-7.2-6.1-12.9-9.7-17.1l-1.7-7.7l-4-2l-2-5.7c-8.2-10.6-14.4-20.1-18.8-28.4c-5.9-4-9.7-8.4-11.4-13.4l-5.7-3.7l-4-3.7l-11.4-13.4c-2.3-1.3-3.5-2.6-3.7-3.7c-14.8-10-26.2-19-34.1-26.7c-46.4-17.4-91.5-23.8-135.1-19.1c-1.9,1.5-3.8,2.2-5.7,2L621.4,40.3z M775.3,99.1l22.8,13.4c2.7,8.2,4,14.5,4,19.1c-3,0-5.6-0.7-7.7-2C750.2,78.2,695.8,56.7,631.1,65h-13.4c-8.2,3-15.7,4.3-22.8,3.7l-13.4,5.7l-3.7,2l-11.4,3.7l-13.4,5.7l-3.7,4l-13.4,7.4l-5.7,4c-15.7,7.4-27.8,15-36.1,22.8l-5.7,2c-10,8.5-19.5,14.8-28.4,18.8c-8.7,8.3-16.3,14.7-22.7,19.1l-9.7,5.7l-5.7,7.7l-9.4,3.7c-4.2,4.7-8.6,8-13.4,9.7l-3.7,5.7l-11.4,7.4l-5.7,2l-2,5.7h-5.7c-1.1,2.1-3,3.3-5.7,3.7c-8.2,9.3-17.1,15.6-26.7,19.1c-2.3,4-4.7,7.2-7.4,9.7l-7.7,1.7l-5.7,5.7l-5.7,4l-4,1.7l-3.7,4l-3.7,1.7l-4,2l-3.7,3.7l-24.7,19.1c-11.8,5.9-22.5,9.7-32.1,11.4l5.7-5.7l3.7-1.7l11.4-4l2-3.7c9.9-3.8,18.1-8.3,24.7-13.4l3.7-5.7l5.7-3.7c5.9-6.6,11.6-11.1,17.1-13.4l4-5.7l5.7-3.7l5.7-4l7.4-3.7c1.3-2.3,2.7-3.5,4-3.7l3.7-4l5.7-1.7l11.4-7.7c7-7.8,14-13.5,21-17.1c1.5-2.1,3.4-3.4,5.7-4l3.7-5.7l7.7-3.7l3.7-5.7l7.7-3.7c1.1-2.3,2.4-3.6,3.7-4l3.7-3.7l11.7-7.7l3.7-3.7l17.1-13.4l19.1-13.4l7.7-3.7l5.7-3.7c4.7-4.5,9.8-7.8,15.1-9.7l5.7-5.7l3.7-2l13.4-7.4c11.4-5.9,20.3-11,26.7-15.4l3.7-1.7l11.4-4c1.3-1.5,2.6-2.1,3.7-1.7c8.9-4.5,16.6-7.8,23-9.7h5.7c8.3-4.2,16.5-6.1,24.5-5.7l13.4-3.7C690.4,45.9,739.1,61,775.3,99.1L775.3,99.1z M663.3,84.1c55.9,7.6,95.2,34.1,117.7,79.6c36.8,37,44.5,80,23,129.1c-14.2,37.9-37.1,63.2-68.5,75.9c-1.1-1.9-2.4-3.1-3.7-3.7c-6.8-6.6-12-13-15.4-19.1l-5.7-3.7c-9.9-7.2-17.4-13.6-22.8-19.1h-15.1c39.2-98,18.3-172.7-62.8-224.1c10.2-13.8,27.4-17.6,51.5-11.4L663.3,84.1z M213.4,118.2C120.1,88.1,71.9,139.3,68.9,272.1c0.6,11.8-0.1,21.9-2,30.4c-7.2-35.1-6.5-68.6,2-100.7c3.4-56.3,29.4-91.2,77.9-104.7C176.6,92.4,198.8,99.4,213.4,118.2L213.4,118.2z M184.6,175.1c19.9,8.7,28.8,24,26.7,45.8c7.2,9.1,12.2,18.6,15.1,28.4l-5.7,1.7l-5.7-1.7c-8.9,1.3-17.2,1.9-24.7,1.7l-1.7,4c-40.9,0.6-75.8,12.6-104.7,36.1l-9.4,1.7c-1.7-14.2,0.2-26.8,5.7-37.8c-1.9-49.7,16.5-83.9,55.2-102.7C159.7,148.4,176.1,156,184.6,175.1L184.6,175.1z M598.7,258.7c23.9,51.9,17.5,87.4-19.1,106.4c-3.2,10.2-9.5,17.3-18.8,21c-8.7,8.3-18.2,12.7-28.4,13.1c-37.2-78.5-93.6-125.3-169.2-140.5c-9.5-6.4-18.3-10.2-26.4-11.4l7.4-11.4c4.5,0.8,8.3,2.7,11.4,5.7c0.8-2.8,2.1-4.7,4-5.7c11.4-7,21.5-12,30.4-15.1c3.8-7.6,9.5-11.5,17.1-11.7c3.4-8,9.1-11.8,17.1-11.4c12.7-15.4,26.6-25.4,41.8-30.1C531.7,171.8,576,202.2,598.7,258.7L598.7,258.7z M902.7,306.2l1.7,9.4c2.1,4,3.4,7.9,4,11.7c4.7,9.5,7.9,18.3,9.4,26.4l2,7.7c1.5,1.1,2.2,2.4,2,3.7l1.7,3.7c4,11.8,6.5,21.3,7.7,28.7c4.4,8.9,6.9,17.1,7.7,24.5l1.7,4l5.7,17.1l2,15.1l3.7,7.7l5.7,26.7l2,5.7l2,9.4l2,5.7c2.1,7.6,3.3,14.6,3.7,21c4,11.8,6.5,21.8,7.7,30.1l-4,13.4c-13.6-1.5-23.8-7.9-30.4-19.1c6.3-1.5,11.4-4,15.4-7.4c0.2-14.2-1.1-26.3-4-36.1l-1.7-9.7l-2-9.4c-3.8-12.3-6.4-23.1-7.7-32.4l-3.7-11.4l-2-3.7V443c-3.6-7-5.5-13.4-5.7-19.1l-3.7-7.7l-2-7.4l-1.7-9.7l-7.7-24.5l-2-7.7l-3.7-7.7l-2-7.7l-2-7.4l-3.7-4v-5.7l-2-5.7l-1.7-5.7l-2-5.7c-4.5-8.9-7.7-16.5-9.4-22.8l5.7-9.4C896.5,293,900.3,299.9,902.7,306.2L902.7,306.2z M63.2,315.6c-3-7.4-3.7-15-2-22.8C63.5,300,64.2,307.6,63.2,315.6z M629.1,378.4l-19.1,28.4l-22.8,32.4l-3.7,7.4l-5.7,7.7l-4,9.4l-3.7,5.7l-5.7,6l-2,5.7l-3.7,1.7c-3,7.6-6.8,13.9-11.4,19.1l-3.7,5.7l-4,5.7l-7.4,11.4l-2,5.7l-4,4L502,574.1h-11.4l-2-5.7c8.3-0.4,15.9-6.7,22.8-19.1l3.7-9.4l5.7-9.7l7.7-13.4l4-5.7l1.7-3.7l4-5.7l3.7-3.7l2-5.7l1.7-4l2-3.7c8.5-11.4,14.9-20.9,19.1-28.4l3.7-5.7l24.7-36.1l9.4-17.1l4-4l3.7-7.4l3.7-5.7c7.6-10.2,13.3-19.2,17.1-26.7C633.8,363,632.6,371.2,629.1,378.4L629.1,378.4z M61.2,387.8v5.7c-2.1,14.4-4.5,25.9-7.4,34.4l-2,9.4l-2,3.7v5.7c-11,25.4-16,50.1-15.1,74.2c17.8,61.8,47.6,112.4,89.3,151.9c-4.9,0.9-9.4,0.3-13.4-2C24.5,593.4,4.2,507.4,49.9,412.6c0.2-20.1,3.4-37.2,9.7-51.2C61.2,371.2,61.8,380,61.2,387.8L61.2,387.8z M868.6,395.5c-3.4,28.6-11.1,45.1-23,49.5c-7.6,11.2-16.4,15-26.4,11.4c6.4,0.2,9.6-2.4,9.4-7.7c-14.4,8-25.1,2.3-32.1-17.1l5.7,3.7c3.4-5.7,7.2-10.1,11.4-13.4c19-5.7,34.1-14.5,45.5-26.4H868.6L868.6,395.5z M361.2,427.9l-5.7,1.7l-22.8,13.4l-9.4,9.4l-2,4l-11.4,9.4l-13.4,17.1l-5.7,4c-4.9,8.3-10.6,14.6-17.1,18.8l-3.7,7.7l-3.7,2c-4.7,8.3-9.9,14.7-15.4,19.1l-3.7,5.7l-7.7,11.4l-3.7,3.7l-4,5.7l-3.7,5.7l-3.7,3.7l-21,32.4v5.7c-4,9.3-6.5,17.5-7.7,24.7l-1.7,5.7v9.4l-2,4v9.4l-3.7,41.8c-6.6,3.8-13,5.7-19.1,5.7c-11.2-5.9-19.4-11.6-24.7-17.1l-13.4-11.4l4-2c14.8,9.5,30,12.7,45.5,9.7l5.7-17.3c0.8-55.4,19.7-99.6,56.9-132.8c6.8-13.1,15.1-23.2,24.7-30.4l2-5.7l3.7-3.7l4-5.7l5.7-7.7l5.7-5.7l7.4-11.4c4.5-3.8,7.8-7.6,9.7-11.4l24.7-28.4l24.5-9.7C362,418.4,363.9,421.7,361.2,427.9L361.2,427.9z M461.9,475.4l7.7,24.5v26.7c1.5,1.9,2.2,3.8,2,5.7v73.9l-2,13.4c-22.2,59.1-58.3,102.2-108.3,129.1c-72.2,31.7-134.9,24.7-188-20.8l-1.7-9.7c19.5,5.7,28.3-3.8,26.4-28.4c-1.3-64.3,19.6-115.6,62.8-153.8c27.9-44.7,62-73.8,102.4-87.3C402.1,445.8,435,454.7,461.9,475.4L461.9,475.4z M217.1,720.2c98-8.2,151.9-51.2,161.5-129.1c2.1-10.2,2.7-19.7,1.7-28.4c11.4-8,20.3-17.4,26.7-28.4c-23.3,4.9-44.3,2.4-62.8-7.7h-5.7l-13.1-2H314C229.1,554.9,196.8,620.1,217.1,720.2L217.1,720.2z M355.5,541.6c-64.8,24.3-111.7,63.5-140.5,117.7c7.4-65,39.1-107.4,95-127.1C329,528.8,344.2,532,355.5,541.6L355.5,541.6z M376.6,558.7c-1.7-2.1-2.4-4.5-2-7.4h-13.4c-1.9,1.3-3.8,1.9-5.7,1.7L312,570.1l2-3.7l5.7-2l3.7-1.7c5.3-3.2,10.3-5.1,15.1-5.7c11-6.3,21.1-10.1,30.4-11.4C382.8,545.3,385.3,549.6,376.6,558.7L376.6,558.7z M374.6,589.1c-8-4.7-13-11.1-15.1-19.1l1.7-1.7l7.7-2C379,570,380.9,577.6,374.6,589.1L374.6,589.1z M367.2,596.8c-5.3-3.8-9.2-8.3-11.7-13.4C362.6,585.7,366.4,590.2,367.2,596.8z M268.2,598.8l4-5.7C274.7,595.8,273.4,597.7,268.2,598.8z M348.2,625.2c-8.2,3.4-14.5,1.5-19.1-5.7c-0.4-10.2,2.2-19.1,7.7-26.4C356.3,598,360.1,608.7,348.2,625.2L348.2,625.2z M245.5,623.3c-4.7,0.6-3.5-2.6,3.7-9.4c5.5-4.7,9.9-9.2,13.4-13.4C263.3,606.4,257.6,614,245.5,623.3L245.5,623.3z M283.6,667c8.2,9.1,13.8,17.3,17.1,24.7c-17.4,6.4-32,10.9-43.8,13.4l-32.1,7.4c-0.2-36.4,11.8-65.5,36.1-87.3C273.2,627.1,280.8,641,283.6,667L283.6,667z M296.7,655.7l2,5.7c6.8,7,12,14,15.4,21c-15.9-6.3-22.9-17.1-21-32.4L296.7,655.7z M125.8,672.7c3.4,4.4,2.2,5.6-3.7,3.7L125.8,672.7z M526.5,710.8c-4.4,3.8-7.5,7.6-9.4,11.4l-13.4,11.4l-24.5,24.7l-4-2l4-3.7l1.7-5.7l13.4-13.4l3.7-4l4-1.7c6.3-8.7,12.5-15.7,18.8-21L526.5,710.8z M262.6,745v5.7c18.8,2.5,30.8-3.9,36.1-19.1l11.4,4c-1.5-11.2-9.1-15.1-22.8-11.7C287.9,740.2,279.6,747.2,262.6,745L262.6,745z M562.6,769.7l-3.7,3.7c-1.3,2.3-2.6,3.5-3.7,3.7c-8.5,13.3-18.1,23.4-28.7,30.4c-4.5,6.8-9.6,12-15.1,15.4l2-5.7l3.7-4c1.3-2.1,2.6-3.3,3.7-3.7c1.3-2.3,2.7-3.5,4-3.7l3.7-5.7l4-2l1.7-3.7l7.7-7.7l2-4c8.5-7.4,14.8-15,18.8-22.8C564.9,763.4,564.9,766.7,562.6,769.7L562.6,769.7z M414.4,803.8l4-5.7C423.7,800.2,422.4,802.1,414.4,803.8z M194.3,803.8c-40.2,48-36.4,74.5,11.4,79.6l22.8-1.7l24.7-4l7.7-3.7h5.7l5.7-2l9.4-1.7l41.8-17.1l7.7,1.7c-46.1,24.8-92.3,36.9-138.8,36.1c-45.9-1.9-47.8-32.2-5.7-91L194.3,803.8z M403,815.2h-5.7c-15.9,13.3-29.9,22.2-41.8,26.7l2-5.7l11.4-4l2-3.7c11.9-5.7,21.4-11.4,28.4-17.1C401.6,812.4,402.8,813.7,403,815.2L403,815.2z M469.6,853.3c1.3-2.1,2.7-3.4,4-4l11.4-7.4l1.7-4c8.2-4,14.5-8.4,19.1-13.4C506.9,834.3,494.8,843.8,469.6,853.3L469.6,853.3z M418.4,887.4c6.6-8.9,14.2-15.3,22.8-19.1C451.2,875,443.6,881.4,418.4,887.4z M179,895.1c11.9,1.9,22.1,2.5,30.4,1.7l-13.4,5.7c5.5,9.1,12.5,14.8,21,17.1c2.1,11.9,7.1,20.9,15.1,26.7c11.9,1.5,22.1,2.2,30.4,2l38.1-7.7l15.1-4c1.9-1.3,3.8-1.9,5.7-1.7c9.5-5.9,18.4-9.7,26.7-11.4l3.7-4l7.7-1.7c11-7.6,21.1-12.7,30.4-15.4c-54.2,44.7-111.2,60-170.9,45.8c-4.2-7.4-6.1-14.4-5.7-21c-16.7-8.7-30-19.4-40.1-32.1H179L179,895.1z"/></g>
</svg>